HIERARCHY
ROOT mixamorig1:Hips
{
	OFFSET 0.000000 102.625885 0.000000
	CHANNELS 6 Xposition Yposition Zposition Xrotation Yrotation Zrotation
	JOINT mixamorig1:Spine
	{
		OFFSET 0.000000 9.795403 0.052900
		CHANNELS 3 Xrotation Yrotation Zrotation
		JOINT mixamorig1:Spine1
		{
			OFFSET 0.000000 11.427933 0.061772
			CHANNELS 3 Xrotation Yrotation Zrotation
			JOINT mixamorig1:Spine2
			{
				OFFSET 0.000000 13.060509 0.070596
				CHANNELS 3 Xrotation Yrotation Zrotation
				JOINT mixamorig1:Neck
				{
					OFFSET 0.000000 14.693085 0.079421
					CHANNELS 3 Xrotation Yrotation Zrotation
					JOINT mixamorig1:Head
					{
						OFFSET 0.000000 6.361893 0.698900
						CHANNELS 3 Xrotation Yrotation Zrotation
						JOINT mixamorig1:HeadTop_End
						{
							OFFSET 0.000000 19.539703 2.146700
							CHANNELS 3 Xrotation Yrotation Zrotation
							End Site
							{
								OFFSET 0.000000 19.657272 0.000000
							}
						}
					}
				}
				JOINT mixamorig1:LeftShoulder
				{
					OFFSET 5.392900 13.235275 0.095541
					CHANNELS 3 Xrotation Yrotation Zrotation
					JOINT mixamorig1:LeftArm
					{
						OFFSET 11.119499 -2.766815 0.032168
						CHANNELS 3 Xrotation Yrotation Zrotation
						JOINT mixamorig1:LeftForeArm
						{
							OFFSET 24.983320 0.000000 0.000001
							CHANNELS 3 Xrotation Yrotation Zrotation
							JOINT mixamorig1:LeftHand
							{
								OFFSET 23.772598 0.000000 0.000001
								CHANNELS 3 Xrotation Yrotation Zrotation
								JOINT mixamorig1:LeftHandThumb1
								{
									OFFSET 2.837997 -1.762253 1.813343
									CHANNELS 3 Xrotation Yrotation Zrotation
									JOINT mixamorig1:LeftHandThumb2
									{
										OFFSET 2.355415 -1.359894 1.359899
										CHANNELS 3 Xrotation Yrotation Zrotation
										JOINT mixamorig1:LeftHandThumb3
										{
											OFFSET 2.239815 -1.293152 1.293159
											CHANNELS 3 Xrotation Yrotation Zrotation
											JOINT mixamorig1:LeftHandThumb4
											{
												OFFSET 1.907059 -1.101044 1.101039
												CHANNELS 3 Xrotation Yrotation Zrotation
												End Site
												{
													OFFSET 1.641953 -0.977798 1.552217
												}
											}
										}
									}
								}
								JOINT mixamorig1:LeftHandIndex1
								{
									OFFSET 8.230507 -0.688934 1.983022
									CHANNELS 3 Xrotation Yrotation Zrotation
									JOINT mixamorig1:LeftHandIndex2
									{
										OFFSET 2.876244 0.000000 0.000000
										CHANNELS 3 Xrotation Yrotation Zrotation
										JOINT mixamorig1:LeftHandIndex3
										{
											OFFSET 2.645683 0.000000 0.000000
											CHANNELS 3 Xrotation Yrotation Zrotation
											JOINT mixamorig1:LeftHandIndex4
											{
												OFFSET 2.387100 0.000000 0.000000
												CHANNELS 3 Xrotation Yrotation Zrotation
												End Site
												{
													OFFSET 2.386902 -0.002136 -0.031026
												}
											}
										}
									}
								}
								JOINT mixamorig1:LeftHandMiddle1
								{
									OFFSET 8.184280 0.000000 0.000001
									CHANNELS 3 Xrotation Yrotation Zrotation
									JOINT mixamorig1:LeftHandMiddle2
									{
										OFFSET 2.984734 0.000000 0.000000
										CHANNELS 3 Xrotation Yrotation Zrotation
										JOINT mixamorig1:LeftHandMiddle3
										{
											OFFSET 2.781364 0.000000 0.000000
											CHANNELS 3 Xrotation Yrotation Zrotation
											JOINT mixamorig1:LeftHandMiddle4
											{
												OFFSET 2.587654 0.000000 0.000000
												CHANNELS 3 Xrotation Yrotation Zrotation
												End Site
												{
													OFFSET 2.586899 -0.004349 -0.062148
												}
											}
										}
									}
								}
								JOINT mixamorig1:LeftHandRing1
								{
									OFFSET 8.083641 -0.306778 -1.924516
									CHANNELS 3 Xrotation Yrotation Zrotation
									JOINT mixamorig1:LeftHandRing2
									{
										OFFSET 2.581863 0.000000 0.000000
										CHANNELS 3 Xrotation Yrotation Zrotation
										JOINT mixamorig1:LeftHandRing3
										{
											OFFSET 2.375542 0.000000 0.000000
											CHANNELS 3 Xrotation Yrotation Zrotation
											JOINT mixamorig1:LeftHandRing4
											{
												OFFSET 2.208664 0.000000 0.000000
												CHANNELS 3 Xrotation Yrotation Zrotation
												End Site
												{
													OFFSET 2.207703 -0.006699 -0.064855
												}
											}
										}
									}
								}
								JOINT mixamorig1:LeftHandPinky1
								{
									OFFSET 6.058754 -0.504105 -3.614325
									CHANNELS 3 Xrotation Yrotation Zrotation
									JOINT mixamorig1:LeftHandPinky2
									{
										OFFSET 2.372765 0.000000 0.000000
										CHANNELS 3 Xrotation Yrotation Zrotation
										JOINT mixamorig1:LeftHandPinky3
										{
											OFFSET 1.878433 0.000000 0.000000
											CHANNELS 3 Xrotation Yrotation Zrotation
											JOINT mixamorig1:LeftHandPinky4
											{
												OFFSET 1.672493 0.000000 0.000000
												CHANNELS 3 Xrotation Yrotation Zrotation
												End Site
												{
													OFFSET 1.670593 -0.007767 -0.079119
												}
											}
										}
									}
								}
							}
						}
					}
				}
				JOINT mixamorig1:RightShoulder
				{
					OFFSET -5.392900 13.235245 0.063341
					CHANNELS 3 Xrotation Yrotation Zrotation
					JOINT mixamorig1:RightArm
					{
						OFFSET -11.119505 -2.766800 -0.032163
						CHANNELS 3 Xrotation Yrotation Zrotation
						JOINT mixamorig1:RightForeArm
						{
							OFFSET -26.312298 0.000000 0.000001
							CHANNELS 3 Xrotation Yrotation Zrotation
							JOINT mixamorig1:RightHand
							{
								OFFSET -22.439495 0.000000 0.000001
								CHANNELS 3 Xrotation Yrotation Zrotation
								JOINT mixamorig1:RightHandThumb1
								{
									OFFSET -2.861877 -1.680130 1.692907
									CHANNELS 3 Xrotation Yrotation Zrotation
									JOINT mixamorig1:RightHandThumb2
									{
										OFFSET -2.308594 -1.332870 1.332868
										CHANNELS 3 Xrotation Yrotation Zrotation
										JOINT mixamorig1:RightHandThumb3
										{
											OFFSET -2.261650 -1.305771 1.305766
											CHANNELS 3 Xrotation Yrotation Zrotation
											JOINT mixamorig1:RightHandThumb4
											{
												OFFSET -1.972481 -1.138809 1.138812
												CHANNELS 3 Xrotation Yrotation Zrotation
												End Site
												{
													OFFSET -1.597870 -0.961639 1.733939
												}
											}
										}
									}
								}
								JOINT mixamorig1:RightHandIndex1
								{
									OFFSET -8.202507 -0.475891 1.749302
									CHANNELS 3 Xrotation Yrotation Zrotation
									JOINT mixamorig1:RightHandIndex2
									{
										OFFSET -2.752869 0.000000 0.000000
										CHANNELS 3 Xrotation Yrotation Zrotation
										JOINT mixamorig1:RightHandIndex3
										{
											OFFSET -2.661217 0.000000 0.000000
											CHANNELS 3 Xrotation Yrotation Zrotation
											JOINT mixamorig1:RightHandIndex4
											{
												OFFSET -2.379959 0.000000 0.000000
												CHANNELS 3 Xrotation Yrotation Zrotation
												End Site
												{
													OFFSET -2.379906 -0.001251 -0.016453
												}
											}
										}
									}
								}
								JOINT mixamorig1:RightHandMiddle1
								{
									OFFSET -7.999168 0.000000 0.000000
									CHANNELS 3 Xrotation Yrotation Zrotation
									JOINT mixamorig1:RightHandMiddle2
									{
										OFFSET -2.970795 0.000000 0.000000
										CHANNELS 3 Xrotation Yrotation Zrotation
										JOINT mixamorig1:RightHandMiddle3
										{
											OFFSET -2.858894 0.000000 0.000000
											CHANNELS 3 Xrotation Yrotation Zrotation
											JOINT mixamorig1:RightHandMiddle4
											{
												OFFSET -2.585396 0.000000 0.000000
												CHANNELS 3 Xrotation Yrotation Zrotation
												End Site
												{
													OFFSET -2.583305 -0.006760 -0.103880
												}
											}
										}
									}
								}
								JOINT mixamorig1:RightHandRing1
								{
									OFFSET -7.631630 -0.185577 -1.755434
									CHANNELS 3 Xrotation Yrotation Zrotation
									JOINT mixamorig1:RightHandRing2
									{
										OFFSET -2.822731 0.000000 0.000000
										CHANNELS 3 Xrotation Yrotation Zrotation
										JOINT mixamorig1:RightHandRing3
										{
											OFFSET -2.508270 0.000000 0.000000
											CHANNELS 3 Xrotation Yrotation Zrotation
											JOINT mixamorig1:RightHandRing4
											{
												OFFSET -2.281845 0.000000 0.000000
												CHANNELS 3 Xrotation Yrotation Zrotation
												End Site
												{
													OFFSET -2.279503 -0.008636 -0.103039
												}
											}
										}
									}
								}
								JOINT mixamorig1:RightHandPinky1
								{
									OFFSET -6.157494 -0.334320 -3.762905
									CHANNELS 3 Xrotation Yrotation Zrotation
									JOINT mixamorig1:RightHandPinky2
									{
										OFFSET -2.333817 0.000000 0.000000
										CHANNELS 3 Xrotation Yrotation Zrotation
										JOINT mixamorig1:RightHandPinky3
										{
											OFFSET -1.809532 0.000000 0.000000
											CHANNELS 3 Xrotation Yrotation Zrotation
											JOINT mixamorig1:RightHandPinky4
											{
												OFFSET -1.645355 0.000000 0.000000
												CHANNELS 3 Xrotation Yrotation Zrotation
												End Site
												{
													OFFSET -1.644600 -0.005798 -0.049462
												}
											}
										}
									}
								}
							}
						}
					}
				}
			}
		}
	}
	JOINT mixamorig1:LeftUpLeg
	{
		OFFSET 9.159500 -5.444397 0.181700
		CHANNELS 3 Xrotation Yrotation Zrotation
		JOINT mixamorig1:LeftLeg
		{
			OFFSET 0.645340 -45.725731 -1.179758
			CHANNELS 3 Xrotation Yrotation Zrotation
			JOINT mixamorig1:LeftFoot
			{
				OFFSET -0.645348 -41.970768 -1.151694
				CHANNELS 3 Xrotation Yrotation Zrotation
				JOINT mixamorig1:LeftToeBase
				{
					OFFSET 1.653111 -9.287139 11.878092
					CHANNELS 3 Xrotation Yrotation Zrotation
					JOINT mixamorig1:LeftToe_End
					{
						OFFSET 0.806067 0.003284 5.788242
						CHANNELS 3 Xrotation Yrotation Zrotation
						End Site
						{
							OFFSET 0.806068 0.003284 5.788242
						}
					}
				}
			}
		}
	}
	JOINT mixamorig1:RightUpLeg
	{
		OFFSET -9.159500 -5.444397 0.209100
		CHANNELS 3 Xrotation Yrotation Zrotation
		JOINT mixamorig1:RightLeg
		{
			OFFSET -0.645320 -45.725739 -1.164024
			CHANNELS 3 Xrotation Yrotation Zrotation
			JOINT mixamorig1:RightFoot
			{
				OFFSET 0.645327 -41.970695 -1.179469
				CHANNELS 3 Xrotation Yrotation Zrotation
				JOINT mixamorig1:RightToeBase
				{
					OFFSET -1.653143 -9.287123 11.914371
					CHANNELS 3 Xrotation Yrotation Zrotation
					JOINT mixamorig1:RightToe_End
					{
						OFFSET -0.806061 0.003276 5.790062
						CHANNELS 3 Xrotation Yrotation Zrotation
						End Site
						{
							OFFSET -0.806061 0.003276 5.790063
						}
					}
				}
			}
		}
	}
}
MOTION
Frames: 4
Frame Time: 0.033333
3.253107 100.501282 97.042488 -171.096785 68.214807 178.152097 10.463253 -3.470317 -6.480699 5.884062 -0.750341 -0.178303 5.892138 -0.686771 -0.172535 -10.725204 -0.002911 2.045217 -0.210005 0.238680 1.102277 -0.000001 -0.000001 0.000000 4.628704 8.351094 -9.912076 -7.830369 -14.156312 -59.316546 0.000005 -11.059235 0.000007 8.971623 -16.031031 -0.726783 -3.469773 3.607323 7.883180 9.703613 22.223515 2.891142 -5.879064 9.699166 15.674844 -0.000000 -0.000002 -0.000001 0.162347 3.429603 -10.498178 0.209646 1.554742 -15.358570 0.209650 1.554739 -15.358580 0.000000 -0.000000 -0.000001 0.362535 4.206370 -18.344228 0.474609 2.311796 -23.200223 0.474621 2.311790 -23.200235 0.000001 -0.000000 -0.000001 0.689038 4.991708 -26.673250 0.865732 3.066786 -31.521456 0.865746 3.066785 -31.521456 0.000001 0.000001 -0.000001 0.902518 5.377881 -30.995364 1.110603 3.433627 -35.838170 1.110589 3.433611 -35.838136 -0.000000 -0.000001 0.000000 1.416102 6.360749 17.432664 -2.096979 -3.934112 65.117500 -0.000001 27.419453 0.000026 -23.982225 -17.152053 -15.549002 -1.986199 -5.435658 -3.761588 8.766445 -20.697698 -3.062072 -5.504769 -5.510976 -14.718535 0.000001 0.000001 0.000001 2.057104 -6.108265 55.293557 5.419340 -4.594557 99.429372 3.163271 -4.411582 71.271262 -0.000001 -0.000001 -0.000000 2.592812 -6.426555 62.973443 4.946621 -4.648206 93.567308 3.098000 -4.388981 70.420589 0.000000 -0.000001 -0.000001 2.854994 -6.549366 66.538576 4.919137 -4.649811 93.228182 2.921294 -4.322247 68.093940 -0.000000 0.000000 -0.000001 1.542107 -5.696838 47.168200 2.898947 -4.313236 67.797339 2.788738 -4.266689 66.323903 0.000000 0.000000 0.000000 -24.483506 10.359113 4.318170 34.295316 3.770979 2.684110 -4.660094 1.508160 -13.414365 -1.975172 -0.000001 0.000004 0.000000 0.000000 0.000000 -5.742849 -10.212860 -12.369403 26.703294 -9.477559 -2.915144 -17.443635 -4.130328 9.460910 -6.921858 -0.000016 -0.000006 -0.000000 -0.000000 0.000000 
3.629826 100.253235 96.117302 -172.405572 64.442678 179.351233 10.545588 -3.405401 -6.749931 5.946831 -0.721349 -0.014473 5.953277 -0.646901 -0.007116 -10.723704 -0.076839 2.017213 -0.208328 0.161035 1.087156 0.000001 -0.000001 -0.000000 4.379356 8.012801 -9.316057 -5.814269 -11.157501 -59.282477 -0.000004 -12.116995 0.000005 9.840674 -13.043641 -2.690924 -3.469774 3.607324 7.883175 9.703613 22.223518 2.891141 -5.879062 9.699169 15.674847 0.000001 -0.000000 -0.000002 0.162346 3.429604 -10.498178 0.209646 1.554741 -15.358572 0.209649 1.554739 -15.358582 0.000001 0.000001 -0.000000 0.362534 4.206372 -18.344227 0.474609 2.311796 -23.200220 0.474622 2.311791 -23.200244 0.000001 0.000000 -0.000000 0.689038 4.991708 -26.673253 0.865734 3.066787 -31.521460 0.865744 3.066786 -31.521453 -0.000000 -0.000000 -0.000000 0.902518 5.377882 -30.995361 1.110603 3.433625 -35.838170 1.110590 3.433611 -35.838132 -0.000001 -0.000000 0.000000 1.445985 6.217835 17.517033 -2.458875 -5.672479 64.434058 -0.000009 26.317948 0.000012 -20.671405 -16.762353 -14.046545 -1.986200 -5.435656 -3.761590 8.766447 -20.697698 -3.062074 -5.504765 -5.510979 -14.718544 -0.000003 -0.000005 -0.000000 2.057105 -6.108268 55.293557 5.419341 -4.594561 99.429372 3.163272 -4.411582 71.271255 -0.000000 0.000000 -0.000001 2.592813 -6.426557 62.973443 4.946618 -4.648206 93.567301 3.098004 -4.388983 70.420589 0.000000 0.000001 -0.000000 2.854994 -6.549368 66.538576 4.919136 -4.649813 93.228189 2.921299 -4.322247 68.093940 -0.000001 0.000001 -0.000002 1.542106 -5.696843 47.168200 2.898945 -4.313235 67.797339 2.788738 -4.266690 66.323903 -0.000001 0.000001 -0.000001 -23.856871 9.914149 4.712390 31.431684 5.667665 3.213512 -4.774402 2.158877 -12.433911 -1.612556 0.000011 -0.000001 -0.000000 -0.000001 0.000000 -4.757195 -11.197603 -12.358654 26.644957 -9.454725 -2.875921 -17.764014 -7.171705 9.896842 -6.974693 -0.000005 -0.000002 -0.000001 -0.000000 -0.000000 
4.030579 99.998085 94.912941 -173.183913 60.696674 180.022108 10.710386 -3.281978 -7.088247 5.955580 -0.668789 0.128487 5.959599 -0.583701 0.137150 -10.731279 -0.155506 1.981099 -0.215720 0.076753 1.067133 -0.000001 -0.000000 0.000000 4.132138 7.675664 -8.704157 -4.336518 -8.590512 -59.631294 -0.000008 -13.164175 -0.000009 10.983573 -9.814114 -4.860714 -3.469772 3.607319 7.883176 9.703613 22.223515 2.891141 -5.879063 9.699166 15.674847 0.000001 -0.000002 0.000001 0.162347 3.429603 -10.498177 0.209646 1.554742 -15.358570 0.209652 1.554739 -15.358584 0.000002 -0.000000 -0.000000 0.362535 4.206370 -18.344228 0.474608 2.311797 -23.200223 0.474621 2.311790 -23.200242 -0.000000 0.000000 0.000002 0.689038 4.991708 -26.673253 0.865734 3.066786 -31.521449 0.865748 3.066785 -31.521456 0.000000 0.000000 -0.000000 0.902519 5.377881 -30.995364 1.110602 3.433626 -35.838177 1.110592 3.433611 -35.838136 -0.000001 -0.000000 0.000000 1.462155 6.127401 17.518703 -2.421116 -7.097013 63.925878 -0.000011 25.083221 0.000008 -17.633069 -16.282662 -12.834024 -1.986199 -5.435657 -3.761590 8.766444 -20.697696 -3.062074 -5.504767 -5.510971 -14.718545 -0.000001 0.000004 -0.000005 2.057104 -6.108267 55.293557 5.419341 -4.594562 99.429379 3.163274 -4.411583 71.271262 -0.000001 -0.000001 -0.000001 2.592812 -6.426557 62.973443 4.946620 -4.648205 93.567301 3.097999 -4.388979 70.420589 -0.000001 -0.000001 0.000000 2.854995 -6.549369 66.538576 4.919136 -4.649812 93.228182 2.921298 -4.322249 68.093947 0.000002 -0.000000 -0.000000 1.542104 -5.696838 47.168200 2.898947 -4.313230 67.797339 2.788738 -4.266690 66.323903 0.000001 0.000002 -0.000003 -22.691494 9.277186 4.881316 28.142288 6.783148 3.571071 -4.225573 3.249120 -11.792660 -1.608040 -0.000013 -0.000005 0.000000 0.000000 0.000000 -3.361470 -12.255745 -12.360295 26.159959 -9.437824 -2.802649 -17.922471 -10.174193 10.493352 -6.984107 -0.000038 -0.000002 0.000000 0.000001 0.000000 
4.430708 99.757439 93.426323 -173.751939 57.026462 180.493104 10.838214 -3.139458 -7.444443 5.906649 -0.605219 0.217324 5.907957 -0.512301 0.226467 -10.747500 -0.238483 1.937248 -0.231651 -0.013068 1.039818 0.000002 -0.000001 0.000000 3.880372 7.320336 -8.094122 -3.300845 -6.387122 -60.256154 0.000011 -13.871295 0.000016 12.400880 -6.504221 -7.184749 -3.469772 3.607320 7.883174 9.703614 22.223516 2.891146 -5.879064 9.699165 15.674850 0.000001 0.000001 0.000002 0.162348 3.429604 -10.498177 0.209645 1.554741 -15.358570 0.209649 1.554740 -15.358579 -0.000000 -0.000001 -0.000003 0.362534 4.206370 -18.344227 0.474606 2.311796 -23.200220 0.474621 2.311790 -23.200240 0.000001 -0.000001 0.000002 0.689037 4.991708 -26.673253 0.865732 3.066785 -31.521453 0.865748 3.066785 -31.521453 0.000000 0.000000 0.000000 0.902520 5.377882 -30.995364 1.110602 3.433627 -35.838173 1.110591 3.433610 -35.838139 -0.000001 -0.000000 -0.000001 1.461096 6.096990 17.404656 -1.775320 -8.061453 63.641736 0.000003 23.832671 -0.000009 -15.169413 -15.931488 -12.056941 -1.986199 -5.435655 -3.761587 8.766447 -20.697696 -3.062073 -5.504770 -5.510976 -14.718540 -0.000001 0.000002 -0.000001 2.057103 -6.108263 55.293557 5.419341 -4.594562 99.429379 3.163274 -4.411586 71.271262 -0.000002 -0.000000 -0.000002 2.592813 -6.426556 62.973443 4.946619 -4.648203 93.567301 3.098001 -4.388979 70.420582 -0.000001 -0.000001 0.000000 2.854992 -6.549363 66.538576 4.919136 -4.649817 93.228189 2.921294 -4.322248 68.093940 0.000001 0.000000 0.000002 1.542104 -5.696839 47.168207 2.898945 -4.313237 67.797339 2.788736 -4.266686 66.323903 -0.000005 -0.000001 0.000001 -21.156318 8.661873 4.761469 24.598906 7.552335 3.821765 -2.724875 4.581022 -11.992741 -1.770686 0.000019 0.000000 -0.000001 -0.000002 -0.000000 -1.530094 -13.384336 -12.348370 25.014410 -9.453778 -2.703904 -17.804867 -13.102101 11.235133 -6.955711 -0.000037 -0.000006 -0.000000 0.000001 -0.000000 
